<svg width="52" height="52" viewBox="0 0 52 52" fill="none" xmlns="http://www.w3.org/2000/svg">
<g clip-path="url(#clip0_1091_3693)">
<path d="M15.5708 35.6052V37.26C15.591 37.5116 15.5587 37.7647 15.4761 38.0033C15.3935 38.2419 15.2622 38.4607 15.0907 38.646C14.9192 38.8312 14.7111 38.9789 14.4796 39.0796C14.248 39.1803 13.9981 39.2319 13.7457 39.2311C13.4943 39.2353 13.2449 39.1869 13.0134 39.0889C12.782 38.9909 12.5736 38.8456 12.4017 38.6622C12.2297 38.4788 12.0981 38.2615 12.0153 38.0242C11.9324 37.7868 11.9001 37.5348 11.9206 37.2843V35.6052H10.1198C9.87718 35.6118 9.63574 35.5693 9.40998 35.4802C9.18423 35.3911 8.97881 35.2573 8.80606 35.0868C8.63332 34.9164 8.49681 34.7127 8.40475 34.4882C8.31269 34.2636 8.26697 34.0228 8.27034 33.7801V22.8781C8.26345 22.6345 8.30677 22.392 8.39759 22.1659C8.48842 21.9397 8.62481 21.7347 8.79828 21.5635C8.97176 21.3923 9.1786 21.2586 9.40594 21.1708C9.63329 21.083 9.87628 21.0429 10.1198 21.053H17.1039C17.4214 20.5111 17.7967 20.0052 18.2233 19.5442C18.5473 19.3316 18.9314 19.2292 19.3183 19.2522C20.2187 19.2522 20.8514 19.9093 21.0704 21.0287H39.0782C39.2459 20.5675 39.493 20.1393 39.8082 19.7632C40.1862 19.467 40.6435 19.2891 41.1223 19.2522C42.8257 19.2522 44.5048 19.2522 46.2083 19.2522C47.9117 19.2522 48.1064 19.7146 48.3984 21.0773H50.1505C50.397 21.0606 50.6443 21.0948 50.8771 21.1778C51.1098 21.2608 51.3229 21.3908 51.5033 21.5597C51.6836 21.7286 51.8272 21.9329 51.9252 22.1597C52.0232 22.3865 52.0735 22.631 52.073 22.8781V50.1331C52.0842 50.3852 52.0416 50.6369 51.948 50.8713C51.8543 51.1057 51.7118 51.3174 51.5299 51.4924C51.348 51.6674 51.1309 51.8016 50.893 51.8862C50.6552 51.9707 50.4021 52.0035 50.1505 51.9825H6.76158C5.30149 51.9825 4.64446 51.3255 4.64446 49.8897C4.64446 47.6753 4.64446 45.4851 4.64446 43.2707C4.61009 42.9704 4.64352 42.6663 4.74229 42.3807C4.84105 42.0952 5.00264 41.8354 5.21515 41.6205C5.42765 41.4057 5.68565 41.2413 5.97014 41.1394C6.25462 41.0375 6.55834 41.0008 6.85892 41.0318C16.1791 41.0318 25.5237 41.0318 34.8439 41.0318H35.574V31.955H20.9731C20.7876 31.9303 20.5994 31.9734 20.443 32.0761C20.2866 32.1789 20.1724 32.3346 20.1214 32.5147C19.805 33.196 19.4643 33.8774 19.0993 34.5345C18.9536 34.8788 18.7042 35.1693 18.3859 35.3656C18.0676 35.5618 17.696 35.654 17.3229 35.6295L15.5708 35.6052ZM48.3254 24.7032H11.9692V32.0036C13.3076 32.0036 14.5974 32.0036 15.8871 32.0036C15.9953 31.9876 16.0988 31.949 16.1911 31.8903C16.2833 31.8316 16.3622 31.7541 16.4225 31.663C16.7875 30.9816 17.1282 30.2759 17.4689 29.5702C17.6295 29.194 17.9033 28.8771 18.2521 28.6634C18.6009 28.4498 19.0076 28.3499 19.4157 28.3778H37.2287C37.4993 28.3474 37.7731 28.3779 38.0303 28.467C38.2875 28.5562 38.5215 28.7018 38.7152 28.8931C38.9088 29.0844 39.0572 29.3166 39.1495 29.5727C39.2418 29.8288 39.2756 30.1023 39.2485 30.3732V41.1049H48.3254V24.7032ZM48.3254 44.7551H8.27034V48.3323H48.3254C48.3365 48.2271 48.3365 48.1211 48.3254 48.0159V44.7551Z" fill="black"/>
<path d="M28.322 13.5339V19.1552H24.6961C24.6961 18.9849 24.6961 18.7902 24.6961 18.6199V10.2974C24.664 9.93767 24.7364 9.57634 24.9048 9.25687C25.0732 8.93739 25.3303 8.67337 25.6452 8.49659C25.9698 8.31816 26.3405 8.24132 26.7093 8.27603C27.0781 8.31074 27.428 8.4554 27.7136 8.69127L31.4612 11.1247L33.1403 8.69127C31.7289 7.64487 30.2931 6.64714 28.9547 5.52774C28.5807 5.18366 28.1377 4.92323 27.6551 4.76378C27.1726 4.60433 26.6616 4.54952 26.1562 4.60302C25.3431 4.54956 24.5265 4.59039 23.7227 4.7247C22.9927 5.01671 22.506 5.8441 21.922 6.42813C21.3379 7.01217 21.0702 7.30418 20.6079 7.71788C20.4399 7.89544 20.2372 8.03644 20.0122 8.13206C19.7873 8.22767 19.5451 8.27585 19.3007 8.27356C19.0563 8.27128 18.815 8.21859 18.5919 8.11878C18.3688 8.01898 18.1687 7.87422 18.0041 7.69354C16.9577 6.79315 16.0329 5.8441 15.0839 4.94371C14.8851 4.75935 14.6249 4.6553 14.3538 4.65169C13.2831 4.65169 12.188 4.65169 11.1173 4.65169C10.8918 4.6528 10.6717 4.72053 10.4846 4.84637L5.30129 8.69127L6.95606 11.1247C8.2458 10.273 9.38954 9.42131 10.728 8.69127C11.1209 8.43789 11.5748 8.29499 12.042 8.27758C12.475 8.27717 12.8914 8.44402 13.2043 8.74329C13.5171 9.04256 13.7023 9.45112 13.7211 9.88367C13.7211 12.9499 13.7211 16.0404 13.7211 19.1309H10.1196V13.5582L9.68156 13.7772C8.95151 14.2639 8.2458 14.775 7.49143 15.2373C7.29121 15.3812 7.06359 15.4823 6.82268 15.5346C6.58176 15.5869 6.33267 15.5891 6.09085 15.5412C5.84903 15.4933 5.61962 15.3963 5.41683 15.2561C5.21404 15.1159 5.0422 14.9356 4.91194 14.7263L1.31039 9.32397C1.04179 8.9488 0.932024 8.48282 1.00492 8.02721C1.07782 7.5716 1.3275 7.16313 1.69975 6.89049C4.13322 5.04105 6.5667 3.1916 9.00018 1.39083C9.34845 1.13891 9.76314 0.995039 10.1926 0.977137H15.4246C15.7105 0.966503 15.9954 1.0175 16.26 1.12667C16.5245 1.23583 16.7624 1.40062 16.9577 1.60984L19.1965 3.89731C19.9508 3.14293 20.6565 2.43722 21.3379 1.70718C21.5591 1.45853 21.834 1.26355 22.1419 1.13705C22.4497 1.01055 22.7823 0.955861 23.1144 0.977137C24.7935 0.977137 26.4969 0.977137 28.176 0.977137C28.6418 1.00235 29.0938 1.14463 29.4901 1.39083C31.9236 3.14293 34.2354 4.91937 36.5958 6.69581C36.8117 6.83641 36.9958 7.02055 37.1364 7.23645C37.277 7.45235 37.3709 7.69523 37.4121 7.94954C37.4534 8.20384 37.441 8.46396 37.3759 8.71321C37.3108 8.96247 37.1943 9.19536 37.0339 9.39698C35.8901 11.1247 34.7464 12.8525 33.5783 14.556C33.45 14.8003 33.2687 15.0128 33.0476 15.1779C32.8265 15.343 32.5713 15.4565 32.3006 15.5102C32.03 15.5639 31.7507 15.5563 31.4833 15.488C31.216 15.4198 30.9673 15.2925 30.7555 15.1157L28.322 13.5339Z" fill="black"/>
<path d="M46.5246 32.8799C46.5294 33.4199 46.3737 33.9493 46.0772 34.4007C45.7806 34.852 45.3567 35.2052 44.8591 35.4152C44.3615 35.6252 43.8128 35.6827 43.2825 35.5803C42.7522 35.4779 42.2643 35.2202 41.8807 34.84C41.4971 34.4599 41.2351 33.9743 41.1279 33.4449C41.0208 32.9156 41.0733 32.3663 41.2788 31.8669C41.4844 31.3675 41.8337 30.9404 42.2824 30.6398C42.7311 30.3392 43.259 30.1787 43.7991 30.1787C44.5178 30.1787 45.2073 30.4625 45.7178 30.9684C46.2282 31.4742 46.5182 32.1613 46.5246 32.8799Z" fill="black"/>
</g>
<defs>
<clipPath id="clip0_1091_3693">
<rect width="51.0301" height="51.0057" fill="white" transform="translate(0.969971 0.976562)"/>
</clipPath>
</defs>
</svg>
