<svg width="46" height="46" viewBox="0 0 46 46" fill="none" xmlns="http://www.w3.org/2000/svg">
<path d="M21.0833 26.8333C22.7019 26.8333 24.0648 26.2796 25.1722 25.1722C26.2796 24.0648 26.8333 22.7019 26.8333 21.0833C26.8333 19.4648 26.2796 18.1018 25.1722 16.9944C24.0648 15.887 22.7019 15.3333 21.0833 15.3333C19.4648 15.3333 18.1018 15.887 16.9944 16.9944C15.887 18.1018 15.3333 19.4648 15.3333 21.0833C15.3333 22.7019 15.887 24.0648 16.9944 25.1722C18.1018 26.2796 19.4648 26.8333 21.0833 26.8333ZM33.4139 37.0556L26.7056 30.3472C25.8537 30.9009 24.949 31.3056 23.9916 31.5611C23.0341 31.8167 22.0647 31.9444 21.0833 31.9444C18.0593 31.9444 15.4935 30.8907 13.386 28.7832C11.2785 26.6757 10.2239 24.1091 10.2222 21.0833C10.2205 18.0576 11.2751 15.4918 13.386 13.386C15.4969 11.2802 18.0627 10.2256 21.0833 10.2222C24.104 10.2188 26.6706 11.2734 28.7832 13.386C30.8958 15.4986 31.9496 18.0644 31.9444 21.0833C31.9444 22.063 31.8064 23.0324 31.5304 23.9916C31.2544 24.9507 30.8387 25.8554 30.2833 26.7056L37.0556 33.4778L33.4139 37.0556ZM5.11111 46C3.70556 46 2.50274 45.5 1.50267 44.4999C0.502593 43.4998 0.0017037 42.2961 0 40.8889V30.6667H5.11111V40.8889H15.3333V46H5.11111ZM30.6667 46V40.8889H40.8889V30.6667H46V40.8889C46 42.2944 45.5 43.4981 44.4999 44.4999C43.4998 45.5017 42.2961 46.0017 40.8889 46H30.6667ZM0 15.3333V5.11111C0 3.70556 0.500889 2.50274 1.50267 1.50267C2.50444 0.502593 3.70726 0.0017037 5.11111 0H15.3333V5.11111H5.11111V15.3333H0ZM40.8889 15.3333V5.11111H30.6667V0H40.8889C42.2944 0 43.4981 0.500889 44.4999 1.50267C45.5017 2.50444 46.0017 3.70726 46 5.11111V15.3333H40.8889Z" fill="black"/>
</svg>
