<svg width="46" height="45" viewBox="0 0 46 45" fill="none" xmlns="http://www.w3.org/2000/svg">
<path fill-rule="evenodd" clip-rule="evenodd" d="M0 3H28.125V12.5H36.5262L45 23.2335V35.3H39.1369C38.8047 36.6035 38.1337 37.8059 37.1783 38.774C35.7718 40.1993 33.8641 41 31.875 41C29.8859 41 27.9782 40.1993 26.5717 38.774C25.6163 37.8059 24.9453 36.6035 24.6131 35.3H18.5119C18.1797 36.6035 17.5087 37.8059 16.5533 38.774C15.1468 40.1993 13.2391 41 11.25 41C9.26088 41 7.35322 40.1993 5.9467 38.774C4.99131 37.8059 4.32029 36.6035 3.98813 35.3H0V3ZM3.98813 31.5C4.32029 30.1965 4.99131 28.9941 5.9467 28.026C7.35322 26.6007 9.26088 25.8 11.25 25.8C13.2391 25.8 15.1468 26.6007 16.5533 28.026C17.5087 28.9941 18.1797 30.1965 18.5119 31.5H24.375V6.8H3.75V31.5H3.98813ZM28.125 26.8182C29.2554 26.1569 30.5471 25.8 31.875 25.8C33.8641 25.8 35.7718 26.6007 37.1783 28.026C38.1337 28.9941 38.8047 30.1965 39.1369 31.5H41.25V24.5665L34.7238 16.3H28.125V26.8182ZM11.25 29.6C10.2554 29.6 9.30161 30.0004 8.59835 30.713C7.89509 31.4256 7.5 32.3922 7.5 33.4C7.5 34.4078 7.89509 35.3744 8.59835 36.087C9.30161 36.7996 10.2554 37.2 11.25 37.2C12.2446 37.2 13.1984 36.7996 13.9017 36.087C14.6049 35.3744 15 34.4078 15 33.4C15 32.3922 14.6049 31.4256 13.9017 30.713C13.1984 30.0004 12.2446 29.6 11.25 29.6ZM31.875 29.6C30.8804 29.6 29.9266 30.0004 29.2233 30.713C28.5201 31.4256 28.125 32.3922 28.125 33.4C28.125 34.4078 28.5201 35.3744 29.2233 36.087C29.9266 36.7996 30.8804 37.2 31.875 37.2C32.8696 37.2 33.8234 36.7996 34.5266 36.087C35.2299 35.3744 35.625 34.4078 35.625 33.4C35.625 32.3922 35.2299 31.4256 34.5266 30.713C33.8234 30.0004 32.8696 29.6 31.875 29.6Z" fill="black"/>
</svg>
