<svg width="38" height="38" viewBox="0 0 38 38" fill="none" xmlns="http://www.w3.org/2000/svg">
<path d="M28.3607 0C29.0319 0.000126733 29.6935 0.160301 30.2905 0.467237C30.8875 0.774173 31.4027 1.21902 31.7933 1.76489L31.9812 2.04989L37.0986 10.5788C37.6029 11.4199 37.9049 12.3666 37.981 13.3443L38 13.8362V33.7778C38.0003 34.843 37.598 35.869 36.8737 36.65C36.1494 37.4311 35.1567 37.9096 34.0944 37.9894L33.7778 38H4.22222C3.15701 38.0003 2.13103 37.598 1.34995 36.8737C0.568882 36.1494 0.090447 35.1567 0.0105558 34.0944L0 33.7778V13.8362C6.64384e-05 12.8543 0.22845 11.8858 0.667111 11.0073L0.903556 10.5767L6.01667 2.04989C6.36205 1.47386 6.83987 0.988545 7.41044 0.634231C7.98102 0.279916 8.62788 0.0668305 9.29733 0.0126668L9.63933 0H28.3607ZM33.7778 14.7778H4.22222V33.7778H33.7778V14.7778ZM16.8889 4.22222H9.63933L5.83933 10.5556H16.8889V4.22222ZM28.3607 4.22222H21.1111V10.5556H32.1607L28.3607 4.22222Z" fill="black"/>
</svg>
