<svg width="43" height="43" viewBox="0 0 43 43" fill="none" xmlns="http://www.w3.org/2000/svg">
<path d="M11.9444 33.4444C12.6213 33.4444 13.1891 33.2151 13.6477 32.7564C14.1064 32.2978 14.3349 31.7308 14.3333 31.0556C14.3317 30.3803 14.1024 29.8133 13.6453 29.3547C13.1883 28.896 12.6213 28.6667 11.9444 28.6667C11.2676 28.6667 10.7006 28.896 10.2436 29.3547C9.78648 29.8133 9.55715 30.3803 9.55555 31.0556C9.55396 31.7308 9.7833 32.2986 10.2436 32.7588C10.7038 33.2191 11.2708 33.4476 11.9444 33.4444ZM11.9444 23.8889C12.6213 23.8889 13.1891 23.6596 13.6477 23.2009C14.1064 22.7422 14.3349 22.1753 14.3333 21.5C14.3317 20.8247 14.1024 20.2578 13.6453 19.7991C13.1883 19.3404 12.6213 19.1111 11.9444 19.1111C11.2676 19.1111 10.7006 19.3404 10.2436 19.7991C9.78648 20.2578 9.55715 20.8247 9.55555 21.5C9.55396 22.1753 9.7833 22.743 10.2436 23.2033C10.7038 23.6635 11.2708 23.8921 11.9444 23.8889ZM11.9444 14.3333C12.6213 14.3333 13.1891 14.104 13.6477 13.6453C14.1064 13.1867 14.3349 12.6197 14.3333 11.9444C14.3317 11.2692 14.1024 10.7022 13.6453 10.2436C13.1883 9.78489 12.6213 9.55555 11.9444 9.55555C11.2676 9.55555 10.7006 9.78489 10.2436 10.2436C9.78648 10.7022 9.55715 11.2692 9.55555 11.9444C9.55396 12.6197 9.7833 13.1875 10.2436 13.6477C10.7038 14.108 11.2708 14.3365 11.9444 14.3333ZM19.1111 33.4444H33.4444V28.6667H19.1111V33.4444ZM19.1111 23.8889H33.4444V19.1111H19.1111V23.8889ZM19.1111 14.3333H33.4444V9.55555H19.1111V14.3333ZM4.77778 43C3.46389 43 2.33952 42.5326 1.40467 41.5977C0.469815 40.6629 0.00159259 39.5377 0 38.2222V4.77778C0 3.46389 0.468222 2.33952 1.40467 1.40467C2.34111 0.469815 3.46548 0.00159259 4.77778 0H38.2222C39.5361 0 40.6613 0.468222 41.5977 1.40467C42.5342 2.34111 43.0016 3.46548 43 4.77778V38.2222C43 39.5361 42.5326 40.6613 41.5977 41.5977C40.6629 42.5342 39.5377 43.0016 38.2222 43H4.77778ZM4.77778 38.2222H38.2222V4.77778H4.77778V38.2222Z" fill="black"/>
</svg>
